<svg xmlns="http://www.w3.org/2000/svg" width="40" height="40" viewBox="0 0 40 40" fill="none">
<path d="M12.475 27.5251C11.5167 26.5668 11.6767 22.4968 11.6767 22.4968M12.475 27.5251C13.4317 28.4834 17.5033 28.3234 17.5033 28.3234M12.475 27.5251L18.3333 21.6668M27.525 12.4751C26.5667 11.5168 22.4967 11.6768 22.4967 11.6768M27.525 12.4751C28.4833 13.4318 28.3233 17.5034 28.3233 17.5034M27.525 12.4751L21.6667 18.3334" stroke="white" stroke-width="2.5" stroke-linecap="round" stroke-linejoin="round"/>
<path d="M4.16656 20.0002C4.16656 12.5369 4.16656 8.80354 6.4849 6.4852C8.80323 4.16687 12.5349 4.16687 19.9999 4.16687C27.4632 4.16687 31.1966 4.16687 33.5149 6.4852C35.8332 8.80354 35.8332 12.5352 35.8332 20.0002C35.8332 27.4635 35.8332 31.1969 33.5149 33.5152C31.1966 35.8335 27.4649 35.8335 19.9999 35.8335C12.5366 35.8335 8.80323 35.8335 6.4849 33.5152C4.16656 31.1969 4.16656 27.4652 4.16656 20.0002Z" stroke="white" stroke-width="2.5" stroke-linecap="round" stroke-linejoin="round"/>
</svg>