<svg xmlns="http://www.w3.org/2000/svg" width="40" height="40" viewBox="0 0 40 40" fill="none">
<g clip-path="url(#clip0_2_2)">
<path d="M31.6508 31.6667H31.6667M31.6508 31.6667C30.613 32.6958 28.7322 32.4395 27.4132 32.4395C25.7942 32.4395 25.0145 32.7562 23.859 33.9117C22.8752 34.8957 21.5562 36.6667 20 36.6667C18.4438 36.6667 17.1248 34.8957 16.141 33.9117C14.9855 32.7562 14.2058 32.4395 12.5868 32.4395C11.2678 32.4395 9.38697 32.6958 8.34915 31.6667C7.30302 30.6293 7.56047 28.7407 7.56047 27.4132C7.56047 25.7357 7.1936 24.9643 5.99897 23.7697C4.2219 21.9927 3.33337 21.104 3.33333 20C3.33335 18.8958 4.22187 18.0073 5.99892 16.2303C7.06533 15.1639 7.56047 14.1071 7.56047 12.5868C7.56047 11.2677 7.30415 9.3869 8.33333 8.34907C9.37072 7.30297 11.2593 7.56043 12.5868 7.56043C14.1071 7.56043 15.1639 7.06533 16.2302 5.99895C18.0073 4.22187 18.8958 3.33333 20 3.33333C21.1042 3.33333 21.9927 4.22187 23.7697 5.99895C24.8358 7.06512 25.8925 7.56043 27.4132 7.56043C28.7322 7.56043 30.6132 7.30412 31.651 8.33333C32.697 9.37072 32.4395 11.2593 32.4395 12.5868C32.4395 14.2643 32.8065 15.0356 34.001 16.2303C35.7782 18.0073 36.6667 18.8958 36.6667 20C36.6667 21.104 35.7782 21.9927 34.001 23.7697C32.8063 24.9643 32.4395 25.7357 32.4395 27.4132C32.4395 28.7407 32.697 30.6293 31.6508 31.6667Z" stroke="white" stroke-width="2.5"/>
<path d="M15 21.4882L18 24.1667L25 15.8333" stroke="white" stroke-width="2.5" stroke-linecap="round" stroke-linejoin="round"/>
</g>
<defs>
<clipPath id="clip0_2_2">
<rect width="40" height="40" fill="white"/>
</clipPath>
</defs>
</svg>