<svg xmlns="http://www.w3.org/2000/svg" width="40" height="40" viewBox="0 0 40 40" fill="none">
<path d="M12.4749 27.5253C11.5165 26.567 11.6765 22.497 11.6765 22.497M12.4749 27.5253C13.4315 28.4837 17.5032 28.3237 17.5032 28.3237M12.4749 27.5253L18.3332 21.667M27.5249 12.4754C26.5665 11.517 22.4965 11.677 22.4965 11.677M27.5249 12.4754C28.4832 13.432 28.3232 17.5037 28.3232 17.5037M27.5249 12.4754L21.6665 18.3337" stroke="#002726" stroke-width="2.5" stroke-linecap="round" stroke-linejoin="round"/>
<path d="M4.1665 20.0003C4.1665 12.537 4.1665 8.80366 6.48484 6.48533C8.80317 4.16699 12.5348 4.16699 19.9998 4.16699C27.4632 4.16699 31.1965 4.16699 33.5148 6.48533C35.8332 8.80366 35.8332 12.5353 35.8332 20.0003C35.8332 27.4637 35.8332 31.197 33.5148 33.5153C31.1965 35.8337 27.4648 35.8337 19.9998 35.8337C12.5365 35.8337 8.80317 35.8337 6.48484 33.5153C4.1665 31.197 4.1665 27.4653 4.1665 20.0003Z" stroke="#002726" stroke-width="2.5" stroke-linecap="round" stroke-linejoin="round"/>
</svg>