<svg xmlns="http://www.w3.org/2000/svg" width="40" height="40" viewBox="0 0 40 40" fill="none">
<path d="M31.6508 31.6668H31.6666M31.6508 31.6668C30.6129 32.696 28.7321 32.4397 27.4131 32.4397C25.7941 32.4397 25.0144 32.7563 23.8589 33.9118C22.8751 34.8958 21.5561 36.6668 19.9999 36.6668C18.4438 36.6668 17.1248 34.8958 16.1409 33.9118C14.9854 32.7563 14.2057 32.4397 12.5867 32.4397C11.2677 32.4397 9.38689 32.696 8.34907 31.6668C7.30294 30.6295 7.56039 28.7408 7.56039 27.4133C7.56039 25.7358 7.19352 24.9645 5.99889 23.7698C4.22182 21.9928 3.33329 21.1042 3.33325 20.0002C3.33327 18.896 4.22179 18.0075 5.99884 16.2304C7.06525 15.164 7.56039 14.1073 7.56039 12.5869C7.56039 11.2679 7.30407 9.38706 8.33325 8.34923C9.37064 7.30313 11.2593 7.5606 12.5867 7.5606C14.107 7.5606 15.1638 7.0655 16.2302 5.99911C18.0073 4.22203 18.8958 3.3335 19.9999 3.3335C21.1041 3.3335 21.9926 4.22203 23.7696 5.99911C24.8358 7.06528 25.8924 7.5606 27.4131 7.5606C28.7321 7.5606 30.6131 7.30428 31.6509 8.3335C32.6969 9.37088 32.4394 11.2595 32.4394 12.5869C32.4394 14.2645 32.8064 15.0358 34.0009 16.2304C35.7781 18.0075 36.6666 18.896 36.6666 20.0002C36.6666 21.1042 35.7781 21.9928 34.0009 23.7698C32.8063 24.9645 32.4394 25.7358 32.4394 27.4133C32.4394 28.7408 32.6969 30.6295 31.6508 31.6668Z" stroke="#002726" stroke-width="2.5"/>
<path d="M15 21.4883L18 24.1668L25 15.8335" stroke="#002726" stroke-width="2.5" stroke-linecap="round" stroke-linejoin="round"/>
</svg>