<svg xmlns="http://www.w3.org/2000/svg" width="96" height="96" viewBox="0 0 96 96" fill="none">
<path d="M40 32C40 39.5425 40 43.3136 37.6568 45.6568C35.3137 48 31.5425 48 24 48C16.4575 48 12.6863 48 10.3432 45.6568C8 43.3136 8 39.5425 8 32C8 24.4575 8 20.6863 10.3432 18.3432C12.6863 16 16.4575 16 24 16C31.5425 16 35.3137 16 37.6568 18.3432C40 20.6863 40 24.4575 40 32Z" stroke="#33C375" stroke-width="6"/>
<path d="M40 28V45.9284C40 61.8188 29.9372 75.2948 16 80" stroke="#33C375" stroke-width="6" stroke-linecap="round"/>
<path d="M88 32C88 39.5425 88 43.3136 85.6568 45.6568C83.3136 48 79.5424 48 72 48C64.4576 48 60.6864 48 58.3432 45.6568C56 43.3136 56 39.5425 56 32C56 24.4575 56 20.6863 58.3432 18.3432C60.6864 16 64.4576 16 72 16C79.5424 16 83.3136 16 85.6568 18.3432C88 20.6863 88 24.4575 88 32Z" stroke="#33C375" stroke-width="6"/>
<path d="M88 28V45.9284C88 61.8188 77.9372 75.2948 64 80" stroke="#33C375" stroke-width="6" stroke-linecap="round"/>
</svg>