<svg xmlns="http://www.w3.org/2000/svg" width="20" height="20" viewBox="0 0 20 20" fill="none">
<path d="M14.106 6.68811H11.6519C11.2339 6.6881 10.833 6.85331 10.5364 7.14773C10.2398 7.44214 10.0716 7.84188 10.0685 8.25978L9.99686 17.8556M8.40186 11.6681H12.4044M2.0835 9.99967C2.0835 6.26801 2.0835 4.40134 3.24266 3.24217C4.40183 2.08301 6.26766 2.08301 10.0002 2.08301C13.7318 2.08301 15.5985 2.08301 16.7577 3.24217C17.9168 4.40134 17.9168 6.26717 17.9168 9.99967C17.9168 13.7313 17.9168 15.598 16.7577 16.7572C15.5985 17.9163 13.7327 17.9163 10.0002 17.9163C6.2685 17.9163 4.40183 17.9163 3.24266 16.7572C2.0835 15.598 2.0835 13.7322 2.0835 9.99967Z" stroke="white" stroke-width="1.25" stroke-linecap="round" stroke-linejoin="round"/>
</svg>