<svg xmlns="http://www.w3.org/2000/svg" width="48" height="48" viewBox="0 0 48 48" fill="none">
<path d="M12.8716 16C12.289 17.7592 11.9945 19.6009 11.9996 21.454C11.9996 29.488 17.3716 36 23.9996 36M23.9996 36C30.6276 36 35.9996 29.488 35.9996 21.454C36.0046 19.6009 35.7101 17.7592 35.1276 16M23.9996 36C27.6356 36 28.9996 42 28.9996 42M23.9996 36C20.3636 36 18.9996 42 18.9996 42M37.0396 10.46C37.6236 13.792 34.9996 16 34.9996 16C34.9996 16 31.7936 14.874 31.2096 11.54C30.6256 8.208 33.2496 6 33.2496 6C33.2496 6 36.4556 7.126 37.0396 10.46Z" stroke="#002726" stroke-width="3" stroke-linecap="round" stroke-linejoin="round"/>
<path d="M11.5338 36.38C14.5338 35.228 14.9998 32 14.9998 32C14.9998 32 12.4658 29.922 9.46584 31.074C6.46584 32.226 5.99984 35.454 5.99984 35.454C5.99984 35.454 8.53384 37.53 11.5338 36.378M42.1878 24.28C39.6258 26.812 36.1558 25.8 36.1558 25.8C36.1558 25.8 35.2478 22.256 37.8118 19.72C40.3718 17.188 43.8438 18.2 43.8438 18.2C43.8438 18.2 44.7518 21.744 42.1878 24.28ZM36.4678 36.38C33.4678 35.228 32.9998 32 32.9998 32C32.9998 32 35.5338 29.924 38.5338 31.074C41.5338 32.226 41.9998 35.454 41.9998 35.454C41.9998 35.454 39.4678 37.53 36.4678 36.38ZM5.81184 24.28C8.37384 26.812 11.8438 25.8 11.8438 25.8C11.8438 25.8 12.7518 22.256 10.1878 19.72C7.62584 17.19 4.15584 18.2 4.15584 18.2C4.15584 18.2 3.24784 21.744 5.81184 24.28ZM10.9598 10.46C10.3758 13.792 12.9998 16 12.9998 16C12.9998 16 16.2058 14.874 16.7898 11.54C17.3738 8.208 14.7498 6 14.7498 6C14.7498 6 11.5438 7.126 10.9598 10.46Z" stroke="#002726" stroke-width="3" stroke-linecap="round" stroke-linejoin="round"/>
</svg>