<svg xmlns="http://www.w3.org/2000/svg" width="20" height="20" viewBox="0 0 20 20" fill="none">
<path d="M2.0835 10.0007C2.0835 6.26898 2.0835 4.40232 3.24266 3.24315C4.40183 2.08398 6.26766 2.08398 10.0002 2.08398C13.7318 2.08398 15.5985 2.08398 16.7577 3.24315C17.9168 4.40232 17.9168 6.26815 17.9168 10.0007C17.9168 13.7323 17.9168 15.599 16.7577 16.7582C15.5985 17.9173 13.7327 17.9173 10.0002 17.9173C6.2685 17.9173 4.40183 17.9173 3.24266 16.7582C2.0835 15.599 2.0835 13.7332 2.0835 10.0007Z" stroke="white" stroke-width="1.25" stroke-linecap="round" stroke-linejoin="round"/>
<path d="M14.5902 5.41699H14.5819M13.7502 10.0003C13.7502 10.9949 13.3552 11.9487 12.6519 12.652C11.9486 13.3552 10.9948 13.7503 10.0002 13.7503C9.00568 13.7503 8.05186 13.3552 7.34859 12.652C6.64533 11.9487 6.25024 10.9949 6.25024 10.0003C6.25024 9.00576 6.64533 8.05194 7.34859 7.34868C8.05186 6.64541 9.00568 6.25033 10.0002 6.25033C10.9948 6.25033 11.9486 6.64541 12.6519 7.34868C13.3552 8.05194 13.7502 9.00576 13.7502 10.0003Z" stroke="white" stroke-width="1.25" stroke-linecap="round" stroke-linejoin="round"/>
</svg>