<svg xmlns="http://www.w3.org/2000/svg" width="20" height="20" viewBox="0 0 20 20" fill="none">
<path d="M10.2717 7.91699H9.58341C8.79758 7.91699 8.40508 7.91699 8.16091 8.16116C7.91675 8.40533 7.91675 8.79783 7.91675 9.58366V16.667C7.91675 17.4528 7.91675 17.8453 8.16091 18.0895C8.40508 18.3337 8.79758 18.3337 9.58341 18.3337H10.0001C10.7859 18.3337 11.1784 18.3337 11.4226 18.0895C11.6667 17.8453 11.6667 17.4528 11.6667 16.667V13.7503C11.6667 12.3695 12.1067 11.2503 13.4067 11.2503C14.0567 11.2503 14.5834 11.8103 14.5834 12.5003V16.2503C14.5834 17.0362 14.5834 17.4287 14.8276 17.6728C15.0717 17.917 15.4642 17.917 16.2501 17.917H16.6659C17.4509 17.917 17.8442 17.917 18.0884 17.6728C18.3317 17.4287 18.3326 17.0362 18.3326 16.2512L18.3334 11.667C18.3334 9.59533 16.3634 7.91699 14.4142 7.91699C13.3042 7.91699 12.3142 8.46033 11.6667 9.31116C11.6667 8.78616 11.6667 8.52366 11.5526 8.32866C11.4804 8.20527 11.3776 8.10253 11.2542 8.03033C11.0592 7.91616 10.7967 7.91616 10.2717 7.91616M3.75008 7.91699H3.33341C2.54758 7.91699 2.15508 7.91699 1.91091 8.16116C1.66675 8.40533 1.66675 8.79783 1.66675 9.58366V16.667C1.66675 17.4528 1.66675 17.8453 1.91091 18.0895C2.15508 18.3337 2.54758 18.3337 3.33341 18.3337H3.75008C4.53591 18.3337 4.92841 18.3337 5.17258 18.0895C5.41675 17.8453 5.41675 17.4528 5.41675 16.667V9.58366C5.41675 8.79783 5.41675 8.40533 5.17258 8.16116C4.92841 7.91699 4.53591 7.91699 3.75008 7.91699ZM5.41675 3.54199C5.41675 4.03927 5.2192 4.51619 4.86757 4.86782C4.51594 5.21945 4.03903 5.41699 3.54175 5.41699C3.04447 5.41699 2.56755 5.21945 2.21592 4.86782C1.86429 4.51619 1.66675 4.03927 1.66675 3.54199C1.66675 3.04471 1.86429 2.5678 2.21592 2.21617C2.56755 1.86454 3.04447 1.66699 3.54175 1.66699C4.03903 1.66699 4.51594 1.86454 4.86757 2.21617C5.2192 2.5678 5.41675 3.04471 5.41675 3.54199Z" stroke="white" stroke-width="1.25" stroke-linecap="round" stroke-linejoin="round"/>
</svg>