<svg xmlns="http://www.w3.org/2000/svg" width="18" height="18" viewBox="0 0 18 18" fill="none">
<path d="M12.2878 9.32908L12.8894 9.49869L12.8894 9.4986L12.2878 9.32908ZM10.0525 10.9586L10.3453 11.5108L10.3453 11.5107L10.0525 10.9586ZM7.49166 11.8855L7.33174 12.4897L7.33186 12.4897L7.49166 11.8855ZM6.89851 11.5585L6.47001 12.0135L6.4701 12.0136L6.89851 11.5585ZM6.89851 6.44171L6.47005 5.98668L6.47004 5.98669L6.89851 6.44171ZM7.49166 6.11469L7.33187 5.51046L7.33185 5.51047L7.49166 6.11469ZM10.0525 7.04161L10.3453 6.48944L10.3453 6.48942L10.0525 7.04161ZM12.2878 8.67108L12.8894 8.50156L12.8894 8.50147L12.2878 8.67108ZM16.7084 9.00008C16.7084 13.2573 13.2573 16.7084 9.00008 16.7084V17.9584C13.9476 17.9584 17.9584 13.9476 17.9584 9.00008H16.7084ZM9.00008 16.7084C4.74289 16.7084 1.29175 13.2573 1.29175 9.00008H0.041748C0.041748 13.9476 4.05253 17.9584 9.00008 17.9584V16.7084ZM1.29175 9.00008C1.29175 4.74289 4.74289 1.29175 9.00008 1.29175V0.041748C4.05253 0.041748 0.041748 4.05253 0.041748 9.00008H1.29175ZM9.00008 1.29175C13.2573 1.29175 16.7084 4.74289 16.7084 9.00008H17.9584C17.9584 4.05253 13.9476 0.041748 9.00008 0.041748V1.29175ZM11.6863 9.15947C11.6749 9.19999 11.6223 9.31644 11.2849 9.54646C10.9541 9.77201 10.4693 10.0301 9.75969 10.4064L10.3453 11.5107C11.0277 11.1489 11.587 10.8534 11.989 10.5793C12.3845 10.3096 12.7536 9.98042 12.8894 9.49869L11.6863 9.15947ZM9.75973 10.4064C9.07365 10.7701 8.60481 11.0177 8.24016 11.1625C7.87534 11.3073 7.72656 11.3011 7.65147 11.2813L7.33186 12.4897C7.79902 12.6133 8.25778 12.5004 8.70138 12.3243C9.14515 12.1481 9.68559 11.8605 10.3453 11.5108L9.75973 10.4064ZM7.65159 11.2813C7.52527 11.2479 7.41398 11.1854 7.32693 11.1034L6.4701 12.0136C6.71251 12.2418 7.00973 12.4045 7.33174 12.4897L7.65159 11.2813ZM7.32702 11.1035C7.28802 11.0668 7.21417 10.9706 7.17034 10.6091C7.12618 10.2449 7.12508 9.74434 7.12508 9.00008H5.87508C5.87508 9.71124 5.87398 10.3023 5.92943 10.7596C5.98521 11.2196 6.11058 11.675 6.47001 12.0135L7.32702 11.1035ZM7.12508 9.00008C7.12508 8.25582 7.12618 7.75526 7.17034 7.39104C7.21417 7.02952 7.28802 6.93341 7.32699 6.89672L6.47004 5.98669C6.11057 6.32519 5.98521 6.78056 5.92943 7.24058C5.87398 7.69789 5.87508 8.28892 5.87508 9.00008H7.12508ZM7.32697 6.89673C7.41404 6.81474 7.52529 6.75229 7.65148 6.71891L7.33185 5.51047C7.00971 5.59567 6.71245 5.75843 6.47005 5.98668L7.32697 6.89673ZM7.65146 6.71892C7.72657 6.69905 7.87537 6.69287 8.24016 6.83769C8.60481 6.98244 9.07365 7.23002 9.75972 7.59379L10.3453 6.48942C9.6856 6.13965 9.14515 5.85206 8.70137 5.67589C8.25775 5.49978 7.79901 5.38692 7.33187 5.51046L7.65146 6.71892ZM9.7597 7.59378C10.4693 7.97007 10.9541 8.22817 11.2849 8.45371C11.6223 8.68373 11.6749 8.80017 11.6863 8.84069L12.8894 8.50147C12.7536 8.01974 12.3845 7.69052 11.989 7.4209C11.587 7.1468 11.0277 6.85128 10.3453 6.48944L9.7597 7.59378ZM11.6863 8.8406C11.7158 8.94533 11.7158 9.05483 11.6863 9.15956L12.8894 9.4986C12.9814 9.17216 12.9814 8.828 12.8894 8.50156L11.6863 8.8406Z" fill="#002726" fill-opacity="0.7"/>
</svg>