<svg xmlns="http://www.w3.org/2000/svg" width="20" height="20" viewBox="0 0 20 20" fill="none">
<path d="M13.2877 10.329L13.8893 10.4986L13.8893 10.4985L13.2877 10.329ZM11.0524 11.9585L11.3452 12.5107L11.3452 12.5107L11.0524 11.9585ZM8.49158 12.8854L8.33166 13.4896L8.33178 13.4896L8.49158 12.8854ZM7.89843 12.5584L7.46993 13.0134L7.47002 13.0135L7.89843 12.5584ZM7.89843 7.44163L7.46997 6.9866L7.46996 6.98661L7.89843 7.44163ZM8.49158 7.11461L8.33178 6.51038L8.33177 6.51039L8.49158 7.11461ZM11.0524 8.04153L11.3452 7.48935L11.3452 7.48934L11.0524 8.04153ZM13.2877 9.671L13.8893 9.50148L13.8893 9.50139L13.2877 9.671ZM17.7083 10C17.7083 14.2572 14.2572 17.7083 10 17.7083V18.9583C14.9476 18.9583 18.9583 14.9476 18.9583 10H17.7083ZM10 17.7083C5.7428 17.7083 2.29167 14.2572 2.29167 10H1.04167C1.04167 14.9476 5.05245 18.9583 10 18.9583V17.7083ZM2.29167 10C2.29167 5.7428 5.7428 2.29167 10 2.29167V1.04167C5.05245 1.04167 1.04167 5.05245 1.04167 10H2.29167ZM10 2.29167C14.2572 2.29167 17.7083 5.7428 17.7083 10H18.9583C18.9583 5.05245 14.9476 1.04167 10 1.04167V2.29167ZM12.6862 10.1594C12.6748 10.1999 12.6222 10.3164 12.2848 10.5464C11.954 10.7719 11.4692 11.03 10.7596 11.4063L11.3452 12.5107C12.0276 12.1488 12.5869 11.8533 12.9889 11.5792C13.3844 11.3096 13.7535 10.9803 13.8893 10.4986L12.6862 10.1594ZM10.7597 11.4063C10.0736 11.7701 9.60473 12.0176 9.24007 12.1624C8.87526 12.3072 8.72648 12.3011 8.65139 12.2812L8.33178 13.4896C8.79894 13.6132 9.2577 13.5003 9.7013 13.3242C10.1451 13.148 10.6855 12.8604 11.3452 12.5107L10.7597 11.4063ZM8.6515 12.2812C8.52519 12.2478 8.4139 12.1853 8.32684 12.1033L7.47002 13.0135C7.71243 13.2417 8.00965 13.4044 8.33166 13.4896L8.6515 12.2812ZM8.32694 12.1034C8.28794 12.0667 8.21409 11.9706 8.17026 11.609C8.1261 11.2448 8.125 10.7443 8.125 10H6.875C6.875 10.7112 6.8739 11.3022 6.92935 11.7595C6.98513 12.2195 7.11049 12.6749 7.46993 13.0134L8.32694 12.1034ZM8.125 10C8.125 9.25574 8.1261 8.75518 8.17026 8.39096C8.21409 8.02944 8.28794 7.93333 8.3269 7.89664L7.46996 6.98661C7.11049 7.32511 6.98512 7.78048 6.92935 8.2405C6.8739 8.69781 6.875 9.28884 6.875 10H8.125ZM8.32689 7.89665C8.41396 7.81466 8.52521 7.75221 8.6514 7.71883L8.33177 6.51039C8.00963 6.59559 7.71237 6.75835 7.46997 6.9866L8.32689 7.89665ZM8.65138 7.71883C8.72649 7.69897 8.87529 7.69279 9.24008 7.83761C9.60472 7.98236 10.0736 8.22994 10.7596 8.59371L11.3452 7.48934C10.6855 7.13956 10.1451 6.85197 9.70129 6.67581C9.25767 6.4997 8.79893 6.38684 8.33178 6.51038L8.65138 7.71883ZM10.7596 8.5937C11.4692 8.96999 11.954 9.22809 12.2848 9.45362C12.6222 9.68364 12.6748 9.80009 12.6862 9.84061L13.8893 9.50139C13.7535 9.01966 13.3844 8.69044 12.9889 8.42082C12.5869 8.14672 12.0276 7.8512 11.3452 7.48935L10.7596 8.5937ZM12.6862 9.84052C12.7157 9.94525 12.7157 10.0548 12.6862 10.1595L13.8893 10.4985C13.9813 10.1721 13.9813 9.82792 13.8893 9.50148L12.6862 9.84052Z" fill="#FFF9F0" fill-opacity="0.7"/>
</svg>