<svg xmlns="http://www.w3.org/2000/svg" width="80" height="56" viewBox="0 0 80 56" fill="none">
<path d="M77.4579 8.94618C77.0075 7.28149 76.1288 5.76384 74.9094 4.54436C73.6899 3.32489 72.1723 2.44613 70.5077 1.9956C64.4133 0.333496 39.8855 0.333496 39.8855 0.333496C39.8855 0.333496 15.3564 0.383807 9.26205 2.04591C7.59734 2.49647 6.07971 3.37527 4.86028 4.5948C3.64086 5.81434 2.76219 7.33205 2.31177 8.9968C0.468369 19.8253 -0.246722 36.3255 2.36239 46.7208C2.81285 48.3855 3.69154 49.9031 4.91096 51.1226C6.13039 52.3421 7.64799 53.2209 9.31267 53.6714C15.407 55.3335 39.9355 55.3335 39.9355 55.3335C39.9355 55.3335 64.4636 55.3335 70.5577 53.6714C72.2224 53.2209 73.7401 52.3422 74.9596 51.1227C76.179 49.9032 77.0578 48.3855 77.5083 46.7208C79.4526 35.877 80.0517 19.3869 77.4579 8.94618Z" fill="#FF0000"/>
<path d="M32.0786 39.6187L52.4263 27.833L32.0786 16.0474V39.6187Z" fill="white"/>
</svg>