<svg xmlns="http://www.w3.org/2000/svg" width="139" height="32" viewBox="0 0 139 32" fill="none">
<circle cx="16" cy="16" r="14" fill="#33C375"/>
<path d="M14.6667 30V15.0702L9.86667 19.809L8 17.9532L16 10L24 17.9532L22.1333 19.809L17.3333 15.0702V30H14.6667Z" fill="url(#paint0_linear_5_35)"/>
<path d="M41.76 24V8.38H44.62V23.12L43.058 21.514H52.034V24H41.76ZM58.3636 24.264C57.1903 24.264 56.171 24.0147 55.3056 23.516C54.4403 23.0027 53.773 22.284 53.3036 21.36C52.8343 20.436 52.5996 19.358 52.5996 18.126C52.5996 16.894 52.8343 15.8233 53.3036 14.914C53.773 13.99 54.433 13.2713 55.2836 12.758C56.149 12.2447 57.1536 11.988 58.2976 11.988C59.4123 11.988 60.3876 12.2373 61.2236 12.736C62.0743 13.2347 62.727 13.9533 63.1816 14.892C63.6363 15.8307 63.8636 16.96 63.8636 18.28V18.918H55.5256C55.5843 19.9447 55.863 20.722 56.3616 21.25C56.875 21.7633 57.5496 22.02 58.3856 22.02C59.0163 22.02 59.537 21.8807 59.9476 21.602C60.373 21.3087 60.6663 20.9053 60.8276 20.392L63.7096 20.568C63.387 21.712 62.749 22.614 61.7956 23.274C60.857 23.934 59.713 24.264 58.3636 24.264ZM55.5256 17.026H60.9596C60.901 16.0727 60.6296 15.3687 60.1456 14.914C59.6616 14.4447 59.0456 14.21 58.2976 14.21C57.5496 14.21 56.9263 14.452 56.4276 14.936C55.9436 15.42 55.643 16.1167 55.5256 17.026ZM69.2067 24.264C67.9747 24.264 66.9847 23.9853 66.2367 23.428C65.4887 22.856 65.1147 22.064 65.1147 21.052C65.1147 20.04 65.4301 19.248 66.0607 18.676C66.6914 18.104 67.6521 17.6933 68.9427 17.444L72.8367 16.674C72.8367 15.838 72.6461 15.2147 72.2647 14.804C71.8834 14.3787 71.3187 14.166 70.5707 14.166C69.8961 14.166 69.3607 14.3273 68.9647 14.65C68.5834 14.958 68.3194 15.4053 68.1727 15.992L65.3127 15.86C65.5474 14.6133 66.1194 13.66 67.0287 13C67.9381 12.3253 69.1187 11.988 70.5707 11.988C72.2427 11.988 73.5041 12.4133 74.3547 13.264C75.2201 14.1 75.6527 15.3027 75.6527 16.872V21.14C75.6527 21.448 75.7041 21.6607 75.8067 21.778C75.9241 21.8953 76.0927 21.954 76.3127 21.954H76.6867V24C76.5987 24.0293 76.4521 24.0513 76.2467 24.066C76.0561 24.0807 75.8581 24.088 75.6527 24.088C75.1687 24.088 74.7361 24.0147 74.3547 23.868C73.9734 23.7067 73.6801 23.4353 73.4747 23.054C73.2694 22.658 73.1667 22.1227 73.1667 21.448L73.4087 21.624C73.2914 22.1373 73.0347 22.5993 72.6387 23.01C72.2574 23.406 71.7734 23.714 71.1867 23.934C70.6001 24.154 69.9401 24.264 69.2067 24.264ZM69.7787 22.218C70.4094 22.218 70.9521 22.0933 71.4067 21.844C71.8614 21.5947 72.2134 21.25 72.4627 20.81C72.7121 20.37 72.8367 19.8493 72.8367 19.248V18.588L69.8007 19.204C69.1701 19.336 68.7154 19.534 68.4367 19.798C68.1727 20.0473 68.0407 20.3773 68.0407 20.788C68.0407 21.2427 68.1874 21.5947 68.4807 21.844C68.7887 22.0933 69.2214 22.218 69.7787 22.218ZM78.0755 24V12.252H80.7155L80.8255 15.508L80.5835 15.464C80.7595 14.3347 81.0895 13.5207 81.5735 13.022C82.0721 12.5087 82.7468 12.252 83.5975 12.252H84.6755V14.672H83.5755C82.9741 14.672 82.4755 14.76 82.0795 14.936C81.6835 15.112 81.3828 15.3907 81.1775 15.772C80.9868 16.1387 80.8915 16.6227 80.8915 17.224V24H78.0755ZM85.9284 24V12.252H88.4804L88.5904 15.552L88.2604 15.42C88.3778 14.5987 88.6198 13.9387 88.9864 13.44C89.3531 12.9413 89.8004 12.5747 90.3284 12.34C90.8564 12.1053 91.4358 11.988 92.0664 11.988C92.9318 11.988 93.6578 12.1787 94.2444 12.56C94.8458 12.9413 95.3004 13.4693 95.6084 14.144C95.9164 14.804 96.0704 15.574 96.0704 16.454V24H93.2544V17.356C93.2544 16.696 93.1884 16.1387 93.0564 15.684C92.9244 15.2293 92.7044 14.8847 92.3964 14.65C92.1031 14.4007 91.7071 14.276 91.2084 14.276C90.4604 14.276 89.8591 14.54 89.4044 15.068C88.9644 15.596 88.7444 16.3587 88.7444 17.356V24H85.9284ZM101.854 24.264C100.622 24.264 99.6315 23.9853 98.8835 23.428C98.1355 22.856 97.7615 22.064 97.7615 21.052C97.7615 20.04 98.0768 19.248 98.7075 18.676C99.3382 18.104 100.299 17.6933 101.59 17.444L105.484 16.674C105.484 15.838 105.293 15.2147 104.912 14.804C104.53 14.3787 103.966 14.166 103.218 14.166C102.543 14.166 102.008 14.3273 101.612 14.65C101.23 14.958 100.966 15.4053 100.82 15.992L97.9595 15.86C98.1942 14.6133 98.7662 13.66 99.6755 13C100.585 12.3253 101.766 11.988 103.218 11.988C104.89 11.988 106.151 12.4133 107.002 13.264C107.867 14.1 108.3 15.3027 108.3 16.872V21.14C108.3 21.448 108.351 21.6607 108.454 21.778C108.571 21.8953 108.74 21.954 108.96 21.954H109.334V24C109.246 24.0293 109.099 24.0513 108.894 24.066C108.703 24.0807 108.505 24.088 108.3 24.088C107.816 24.088 107.383 24.0147 107.002 23.868C106.62 23.7067 106.327 23.4353 106.122 23.054C105.916 22.658 105.814 22.1227 105.814 21.448L106.056 21.624C105.938 22.1373 105.682 22.5993 105.286 23.01C104.904 23.406 104.42 23.714 103.834 23.934C103.247 24.154 102.587 24.264 101.854 24.264ZM102.426 22.218C103.056 22.218 103.599 22.0933 104.054 21.844C104.508 21.5947 104.86 21.25 105.11 20.81C105.359 20.37 105.484 19.8493 105.484 19.248V18.588L102.448 19.204C101.817 19.336 101.362 19.534 101.084 19.798C100.82 20.0473 100.688 20.3773 100.688 20.788C100.688 21.2427 100.834 21.5947 101.128 21.844C101.436 22.0933 101.868 22.218 102.426 22.218ZM109.614 24L113.838 18.016L109.768 12.252H112.826L115.51 16.256L118.15 12.252H121.252L117.204 18.038L121.406 24H118.348L115.554 19.776L112.738 24H109.614ZM122.421 24V12.252H125.237V24H122.421ZM122.377 10.69V8.182H125.303V10.69H122.377ZM132.448 24.264C131.29 24.264 130.314 24.0953 129.522 23.758C128.745 23.4207 128.144 22.9513 127.718 22.35C127.293 21.7487 127.051 21.0667 126.992 20.304L129.874 20.172C129.977 20.788 130.234 21.2647 130.644 21.602C131.055 21.9393 131.664 22.108 132.47 22.108C133.13 22.108 133.644 22.0053 134.01 21.8C134.392 21.58 134.582 21.2427 134.582 20.788C134.582 20.524 134.516 20.304 134.384 20.128C134.252 19.952 134.003 19.798 133.636 19.666C133.27 19.534 132.727 19.402 132.008 19.27C130.806 19.0647 129.86 18.8153 129.17 18.522C128.481 18.214 127.99 17.8327 127.696 17.378C127.418 16.9233 127.278 16.3587 127.278 15.684C127.278 14.584 127.696 13.6967 128.532 13.022C129.383 12.3327 130.622 11.988 132.25 11.988C133.306 11.988 134.194 12.164 134.912 12.516C135.631 12.8533 136.188 13.3227 136.584 13.924C136.995 14.5107 137.252 15.1853 137.354 15.948L134.516 16.08C134.443 15.684 134.311 15.3393 134.12 15.046C133.93 14.7527 133.673 14.5327 133.35 14.386C133.028 14.2247 132.646 14.144 132.206 14.144C131.546 14.144 131.048 14.276 130.71 14.54C130.373 14.804 130.204 15.156 130.204 15.596C130.204 15.904 130.278 16.1607 130.424 16.366C130.586 16.5713 130.842 16.74 131.194 16.872C131.546 16.9893 132.016 17.0993 132.602 17.202C133.834 17.3927 134.802 17.642 135.506 17.95C136.225 18.2433 136.731 18.6247 137.024 19.094C137.332 19.5487 137.486 20.0987 137.486 20.744C137.486 21.492 137.274 22.13 136.848 22.658C136.438 23.186 135.851 23.5893 135.088 23.868C134.34 24.132 133.46 24.264 132.448 24.264Z" fill="#33C375"/>
<defs>
<linearGradient id="paint0_linear_5_35" x1="16" y1="10" x2="16" y2="39.5" gradientUnits="userSpaceOnUse">
<stop stop-color="#002726"/>
<stop offset="1" stop-color="#002726" stop-opacity="0"/>
</linearGradient>
</defs>
</svg>