<svg xmlns="http://www.w3.org/2000/svg" width="40" height="40" viewBox="0 0 40 40" fill="none">
<path d="M30.8333 29.7302C32.5508 29.478 33.7711 28.9903 34.7139 28.0475C36.6666 26.095 36.6666 22.9522 36.6666 16.6668C36.6666 10.3814 36.6666 7.23875 34.7139 5.28611C32.7614 3.3335 29.6186 3.3335 23.3333 3.3335H16.6666C10.3812 3.3335 7.2385 3.3335 5.28587 5.28611C3.33325 7.23875 3.33325 10.3814 3.33325 16.6668C3.33325 22.9522 3.33325 26.095 5.28587 28.0475C6.63284 29.3945 8.54609 29.8123 11.6666 29.9418" stroke="#33C375" stroke-width="2.5" stroke-linecap="round"/>
<path d="M28.3334 11.6665H11.6667" stroke="#33C375" stroke-width="2.5" stroke-linecap="round" stroke-linejoin="round"/>
<path d="M24.1666 24.1667C24.1666 26.4678 22.3011 28.3333 19.9999 28.3333C17.6988 28.3333 15.8333 26.4678 15.8333 24.1667C15.8333 21.8655 17.6988 20 19.9999 20C22.3011 20 24.1666 21.8655 24.1666 24.1667Z" stroke="#33C375" stroke-width="2.5"/>
<path d="M15.8333 24.1665C15.8333 30.943 18.7036 34.7842 19.9999 36.6665L22.4999 31.6665L25.4166 33.3332L28.3333 34.9998C27.1088 33.8145 25.8429 30.0783 25.8429 30.0783" stroke="#33C375" stroke-width="2.5" stroke-linecap="round" stroke-linejoin="round"/>
</svg>