<svg xmlns="http://www.w3.org/2000/svg" width="40" height="40" viewBox="0 0 40 40" fill="none">
<path d="M25.0306 15.7221L25.9104 17.4965C26.0304 17.7435 26.3504 17.9803 26.6204 18.0257L28.2152 18.2928C29.2351 18.4643 29.4751 19.2103 28.7401 19.9462L27.5002 21.1963C27.2902 21.408 27.1752 21.8163 27.2402 22.1087L27.5952 23.6562C27.8752 24.8812 27.2302 25.355 26.1554 24.7148L24.6606 23.8227C24.3906 23.6613 23.9457 23.6613 23.6707 23.8227L22.1759 24.7148C21.1061 25.355 20.4561 24.8762 20.7361 23.6562L21.0911 22.1087C21.1559 21.8163 21.0411 21.408 20.8311 21.1963L19.5912 19.9462C18.8612 19.2103 19.0962 18.4643 20.1161 18.2928L21.7109 18.0257C21.9759 17.9803 22.2959 17.7435 22.4159 17.4965L23.2957 15.7221C23.7757 14.7593 24.5556 14.7593 25.0306 15.7221Z" stroke="#33C375" stroke-width="2.5" stroke-linecap="round" stroke-linejoin="round"/>
<path d="M13.3333 28.3335V34.1668" stroke="#33C375" stroke-width="2.5" stroke-linecap="round" stroke-linejoin="round"/>
<path d="M13.3333 5.8335V11.6668" stroke="#33C375" stroke-width="2.5" stroke-linecap="round" stroke-linejoin="round"/>
<path d="M36.6669 14.7984C36.5554 12.2283 36.2429 10.5551 35.3674 9.23156C34.8637 8.4701 34.2382 7.80781 33.5189 7.27463C31.5747 5.8335 28.8319 5.8335 23.3465 5.8335H16.6553C11.1698 5.8335 8.4271 5.8335 6.4829 7.27463C5.76362 7.80781 5.13799 8.4701 4.63432 9.23156C3.75897 10.555 3.44647 12.2279 3.33492 14.7975C3.31584 15.237 3.69434 15.5731 4.10905 15.5731C6.41869 15.5731 8.29102 17.5552 8.29102 20.0002C8.29102 22.4452 6.41869 24.4272 4.10905 24.4272C3.69434 24.4272 3.31584 24.7633 3.33492 25.2028C3.44647 27.7725 3.75897 29.4453 4.63432 30.7688C5.13799 31.5302 5.76362 32.1925 6.4829 32.7257C8.4271 34.1668 11.1698 34.1668 16.6553 34.1668H23.3465C28.8319 34.1668 31.5747 34.1668 33.5189 32.7257C34.2382 32.1925 34.8637 31.5302 35.3674 30.7688C36.2429 29.4452 36.5554 27.772 36.6669 25.202V14.7984Z" stroke="#33C375" stroke-width="2.5" stroke-linejoin="round"/>
</svg>