<svg xmlns="http://www.w3.org/2000/svg" width="40" height="40" viewBox="0 0 40 40" fill="none">
<path d="M8.63337 25.494L9.26545 26.5724L9.26546 26.5724L8.63337 25.494ZM4.38905 32.37L3.53397 33.2818L3.53398 33.2818L4.38905 32.37ZM28.9441 32.37L28.089 31.4582L28.089 31.4582L28.9441 32.37ZM24.6997 25.494L24.0677 26.5724L24.0677 26.5724L24.6997 25.494ZM28.9112 8.41545C28.2991 8.09626 27.5441 8.33374 27.2249 8.94587C26.9057 9.558 27.1432 10.313 27.7553 10.6322L28.9112 8.41545ZM30.8332 11.6667L29.7872 12.351C30.0322 12.7255 30.4587 12.9404 30.9055 12.9146C31.3523 12.8887 31.7511 12.626 31.9513 12.2257L30.8332 11.6667ZM37.2256 6.11803C37.8431 5.8093 38.0934 5.05846 37.7846 4.44098C37.4759 3.82351 36.725 3.57323 36.1076 3.88197L37.2256 6.11803ZM8.00128 24.4156C7.08902 24.9503 4.96209 26.0056 3.60274 27.3154C2.91026 27.9826 2.22767 28.8839 2.10305 30.0062C1.96952 31.2087 2.50677 32.3184 3.53397 33.2818L5.24413 31.4582C4.59778 30.8521 4.56679 30.4711 4.58778 30.2821C4.61768 30.0128 4.81237 29.6216 5.33737 29.1157C6.41296 28.0794 8.08175 27.2662 9.26545 26.5724L8.00128 24.4156ZM3.53398 33.2818C5.2841 34.9231 7.39729 36.25 10.1345 36.25V33.75C8.29288 33.75 6.76406 32.8836 5.24412 31.4582L3.53398 33.2818ZM10.1345 36.25H23.1986V33.75H10.1345V36.25ZM23.1986 36.25C25.9359 36.25 28.0491 34.9231 29.7992 33.2818L28.089 31.4582C26.5691 32.8836 25.0403 33.75 23.1986 33.75V36.25ZM29.7992 33.2818C30.8264 32.3185 31.3636 31.2087 31.2301 30.0062C31.1055 28.8839 30.4229 27.9826 29.7304 27.3154C28.3711 26.0056 26.2441 24.9503 25.3318 24.4156L24.0677 26.5724C25.2514 27.2662 26.9202 28.0794 27.9958 29.1157C28.5208 29.6216 28.7155 30.0128 28.7454 30.2821C28.7664 30.4711 28.7354 30.852 28.089 31.4582L29.7992 33.2818ZM25.3318 24.4156C20.0265 21.306 13.3066 21.306 8.00128 24.4156L9.26546 26.5724C13.7901 23.9204 19.543 23.9204 24.0677 26.5724L25.3318 24.4156ZM22.0833 11.6667C22.0833 14.6582 19.6581 17.0833 16.6666 17.0833V19.5833C21.0388 19.5833 24.5833 16.0389 24.5833 11.6667H22.0833ZM16.6666 17.0833C13.675 17.0833 11.2499 14.6582 11.2499 11.6667H8.74992C8.74992 16.0389 12.2943 19.5833 16.6666 19.5833V17.0833ZM11.2499 11.6667C11.2499 8.67512 13.675 6.25 16.6666 6.25V3.75C12.2943 3.75 8.74992 7.29441 8.74992 11.6667H11.2499ZM16.6666 6.25C19.6581 6.25 22.0833 8.67513 22.0833 11.6667H24.5833C24.5833 7.2944 21.0388 3.75 16.6666 3.75V6.25ZM28.3333 9.52382C27.7553 10.6322 27.7551 10.6321 27.7549 10.632C27.7548 10.6319 27.7546 10.6318 27.7545 10.6318C27.7543 10.6317 27.7541 10.6315 27.7539 10.6314C27.7535 10.6312 27.7532 10.6311 27.7531 10.631C27.7527 10.6308 27.7527 10.6308 27.7531 10.631C27.7539 10.6315 27.7562 10.6327 27.76 10.6347C27.7675 10.6387 27.7806 10.6459 27.7989 10.6561C27.8355 10.6764 27.8923 10.7087 27.9644 10.7519C28.1095 10.8388 28.3129 10.9675 28.5385 11.1306C29.0088 11.4706 29.4924 11.9004 29.7872 12.351L31.8793 10.9823C31.3407 10.1591 30.5744 9.51752 30.003 9.10453C29.7078 8.89112 29.4424 8.723 29.2489 8.60713C29.1518 8.54897 29.0718 8.50338 29.0141 8.47123C28.9851 8.45515 28.9617 8.44239 28.9444 8.43306C28.9357 8.4284 28.9285 8.42459 28.923 8.42165C28.9202 8.42018 28.9178 8.41893 28.9159 8.4179C28.9149 8.41738 28.914 8.41692 28.9132 8.41651C28.9128 8.4163 28.9125 8.41611 28.9121 8.41594C28.912 8.41585 28.9117 8.41573 28.9116 8.41568C28.9114 8.41557 28.9112 8.41545 28.3333 9.52382ZM30.8332 11.6667C31.9513 12.2257 31.9512 12.2259 31.9511 12.2261C31.9511 12.2261 31.951 12.2263 31.951 12.2263C31.9509 12.2265 31.9509 12.2265 31.9509 12.2265C31.9509 12.2265 31.951 12.2262 31.9513 12.2256C31.9519 12.2244 31.9532 12.222 31.955 12.2184C31.9586 12.2113 31.9645 12.1997 31.9728 12.1837C31.9893 12.1518 32.0149 12.1026 32.0494 12.0381C32.1184 11.9092 32.2222 11.7197 32.3577 11.4857C32.6294 11.0164 33.0246 10.3743 33.5171 9.68488C34.5306 8.26591 35.8425 6.80959 37.2256 6.11803L36.1076 3.88197C34.1573 4.85708 32.5525 6.73409 31.4827 8.23179C30.9335 9.00071 30.4954 9.71273 30.1942 10.2331C30.0432 10.4938 29.9257 10.708 29.8449 10.859C29.8045 10.9345 29.7733 10.9944 29.7515 11.0365C29.7406 11.0575 29.7322 11.0742 29.7261 11.0861C29.7231 11.0921 29.7206 11.0969 29.7188 11.1005C29.7179 11.1023 29.7172 11.1038 29.7166 11.105C29.7163 11.1056 29.716 11.1061 29.7158 11.1065C29.7157 11.1068 29.7155 11.107 29.7155 11.1072C29.7153 11.1074 29.7152 11.1076 30.8332 11.6667Z" fill="#33C375"/>
</svg>