<svg xmlns="http://www.w3.org/2000/svg" width="40" height="40" viewBox="0 0 40 40" fill="none">
<path d="M5 33.3335V29.9508C5 27.8803 5.93212 25.85 7.81613 24.9912C10.1142 23.9437 12.8702 23.3335 15.8333 23.3335C17.908 23.3335 19.8812 23.6327 21.6667 24.1715" stroke="#33C375" stroke-width="2.5" stroke-linecap="round" stroke-linejoin="round"/>
<path d="M15.8333 18.3332C19.055 18.3332 21.6667 15.7215 21.6667 12.4998C21.6667 9.27818 19.055 6.6665 15.8333 6.6665C12.6117 6.6665 10 9.27818 10 12.4998C10 15.7215 12.6117 18.3332 15.8333 18.3332Z" stroke="#33C375" stroke-width="2.5" stroke-linecap="round" stroke-linejoin="round"/>
<path d="M24.1667 6.90771C26.5762 7.62485 28.3334 9.85696 28.3334 12.4995C28.3334 15.142 26.5762 17.3742 24.1667 18.0913" stroke="#33C375" stroke-width="2.5" stroke-linecap="round" stroke-linejoin="round"/>
<path d="M30 23.3335V33.3335M25 28.3335H35" stroke="#33C375" stroke-width="2.5" stroke-linecap="round" stroke-linejoin="round"/>
</svg>